hintordertest_mdd.ufo
<glyph name="uni001E" format="2">
  <advance width="899"/>
  <unicode hex="001E"/>
  <outline>
    <contour>
      <point x="837" y="208" type="curve" smooth="yes"/>
      <point x="853" y="208"/>
      <point x="869" y="221"/>
      <point x="869" y="240" type="curve" smooth="yes"/>
      <point x="869" y="259"/>
      <point x="853" y="272"/>
      <point x="837" y="272" type="curve" smooth="yes"/>
      <point x="821" y="272"/>
      <point x="805" y="259"/>
      <point x="805" y="240" type="curve" smooth="yes"/>
      <point x="805" y="221"/>
      <point x="821" y="208"/>
    </contour>
    <contour>
      <point x="12" y="0" type="line"/>
      <point x="210" y="0" type="line"/>
      <point x="210" y="20" type="line"/>
      <point x="113" y="26" type="line"/>
      <point x="99" y="26" type="line"/>
      <point x="12" y="20" type="line"/>
    </contour>
    <contour>
      <point x="85" y="0" type="line"/>
      <point x="114" y="0" type="line"/>
      <point x="320" y="653" type="line"/>
      <point x="324" y="665" type="line"/>
      <point x="306" y="665" type="line"/>
      <point x="524" y="0" type="line"/>
      <point x="556" y="0" type="line"/>
      <point x="327" y="684" type="line"/>
      <point x="307" y="684" type="line"/>
    </contour>
    <contour>
      <point x="181" y="247" type="line"/>
      <point x="456" y="247" type="line"/>
      <point x="456" y="267" type="line"/>
      <point x="181" y="267" type="line"/>
    </contour>
    <contour>
      <point x="403" y="0" type="line"/>
      <point x="651" y="0" type="line"/>
      <point x="651" y="20" type="line"/>
      <point x="537" y="26" type="line"/>
      <point x="523" y="26" type="line"/>
      <point x="403" y="20" type="line"/>
    </contour>
  </outline>
</glyph>
<glyph name="uni001E" format="2">
  <advance width="925"/>
  <unicode hex="001E"/>
  <outline>
    <contour>
      <point x="809" y="164" type="curve" smooth="yes"/>
      <point x="772" y="164"/>
      <point x="746" y="195"/>
      <point x="746" y="231" type="curve" smooth="yes"/>
      <point x="746" y="267"/>
      <point x="772" y="298"/>
      <point x="809" y="298" type="curve" smooth="yes"/>
      <point x="846" y="298"/>
      <point x="872" y="267"/>
      <point x="872" y="231" type="curve" smooth="yes"/>
      <point x="872" y="195"/>
      <point x="846" y="164"/>
    </contour>
    <contour>
      <point x="809" y="144" type="curve" smooth="yes"/>
      <point x="853" y="144"/>
      <point x="895" y="178"/>
      <point x="895" y="231" type="curve" smooth="yes"/>
      <point x="895" y="284"/>
      <point x="853" y="318"/>
      <point x="809" y="318" type="curve" smooth="yes"/>
      <point x="765" y="318"/>
      <point x="723" y="284"/>
      <point x="723" y="231" type="curve" smooth="yes"/>
      <point x="723" y="178"/>
      <point x="765" y="144"/>
    </contour>
    <contour>
      <point x="388" y="-13" type="curve" smooth="yes"/>
      <point x="460" y="-13"/>
      <point x="517" y="-1"/>
      <point x="584" y="40" type="curve"/>
      <point x="588" y="179" type="line"/>
      <point x="564" y="179" type="line"/>
      <point x="546" y="40" type="line"/>
      <point x="563" y="44" type="line"/>
      <point x="563" y="60" type="line"/>
      <point x="508" y="23"/>
      <point x="453" y="9"/>
      <point x="386" y="9" type="curve" smooth="yes"/>
      <point x="219" y="9"/>
      <point x="96" y="135"/>
      <point x="96" y="338" type="curve" smooth="yes"/>
      <point x="96" y="537"/>
      <point x="212" y="667"/>
      <point x="392" y="667" type="curve" smooth="yes"/>
      <point x="465" y="667"/>
      <point x="505" y="650"/>
      <point x="561" y="613" type="curve"/>
      <point x="561" y="633" type="line"/>
      <point x="540" y="642" type="line"/>
      <point x="558" y="497" type="line"/>
      <point x="582" y="497" type="line"/>
      <point x="578" y="636" type="line"/>
      <point x="518" y="671"/>
      <point x="469" y="689"/>
      <point x="389" y="689" type="curve" smooth="yes"/>
      <point x="199" y="689"/>
      <point x="64" y="548"/>
      <point x="64" y="338" type="curve" smooth="yes"/>
      <point x="64" y="129"/>
      <point x="193" y="-13"/>
    </contour>
  </outline>
</glyph>
<glyph name="uni001E" format="2">
  <advance width="948"/>
  <unicode hex="001E"/>
  <outline>
    <contour>
      <point x="260" y="0" type="line"/>
      <point x="518" y="0" type="line"/>
      <point x="518" y="20" type="line"/>
      <point x="391" y="27" type="line"/>
      <point x="377" y="27" type="line"/>
      <point x="260" y="20" type="line"/>
    </contour>
    <contour>
      <point x="367" y="0" type="curve"/>
      <point x="401" y="0" type="line"/>
      <point x="399" y="102"/>
      <point x="399" y="206"/>
      <point x="399" y="340" type="curve" smooth="yes"/>
      <point x="399" y="347" type="line" smooth="yes"/>
      <point x="399" y="471"/>
      <point x="399" y="574"/>
      <point x="401" y="676" type="curve"/>
      <point x="367" y="676" type="line"/>
      <point x="369" y="574"/>
      <point x="369" y="471"/>
      <point x="369" y="367" type="curve" smooth="yes"/>
      <point x="369" y="310" type="line" smooth="yes"/>
      <point x="369" y="206"/>
      <point x="369" y="102"/>
    </contour>
    <contour>
      <point x="384" y="331" type="line"/>
      <point x="605" y="331" type="line"/>
      <point x="605" y="353" type="line"/>
      <point x="384" y="353" type="line"/>
    </contour>
    <contour>
      <point x="431" y="743" type="curve" smooth="yes"/>
      <point x="447" y="743"/>
      <point x="463" y="756"/>
      <point x="463" y="775" type="curve" smooth="yes"/>
      <point x="463" y="794"/>
      <point x="447" y="807"/>
      <point x="431" y="807" type="curve" smooth="yes"/>
      <point x="415" y="807"/>
      <point x="399" y="794"/>
      <point x="399" y="775" type="curve" smooth="yes"/>
      <point x="399" y="756"/>
      <point x="415" y="743"/>
    </contour>
    <contour>
      <point x="606" y="234" type="line"/>
      <point x="625" y="234" type="line"/>
      <point x="625" y="450" type="line"/>
      <point x="606" y="450" type="line"/>
      <point x="596" y="352" type="line"/>
      <point x="596" y="332" type="line"/>
    </contour>
    <contour>
      <point x="260" y="656" type="line"/>
      <point x="377" y="649" type="line"/>
      <point x="384" y="649" type="line"/>
      <point x="384" y="676" type="line"/>
      <point x="260" y="676" type="line"/>
    </contour>
    <contour>
      <point x="722" y="523" type="line"/>
      <point x="746" y="523" type="line"/>
      <point x="736" y="676" type="line"/>
      <point x="384" y="676" type="line"/>
      <point x="384" y="654" type="line"/>
      <point x="724" y="654" type="line"/>
      <point x="703" y="672" type="line"/>
    </contour>
  </outline>
</glyph>
<glyph name="uni001E" format="2">
  <advance width="466"/>
  <unicode hex="001E"/>
  <outline>
    <contour>
      <point x="58" y="0" type="line"/>
      <point x="306" y="0" type="line"/>
      <point x="306" y="20" type="line"/>
      <point x="189" y="27" type="line"/>
      <point x="175" y="27" type="line"/>
      <point x="58" y="20" type="line"/>
    </contour>
    <contour>
      <point x="410" y="161" type="line"/>
      <point x="430" y="161" type="line"/>
      <point x="436" y="349" type="line"/>
      <point x="404" y="349" type="line"/>
    </contour>
    <contour>
      <point x="165" y="0" type="curve"/>
      <point x="199" y="0" type="line"/>
      <point x="197" y="102"/>
      <point x="197" y="206"/>
      <point x="197" y="310" type="curve" smooth="yes"/>
      <point x="197" y="367" type="line" smooth="yes"/>
      <point x="197" y="471"/>
      <point x="197" y="574"/>
      <point x="199" y="676" type="curve"/>
      <point x="165" y="676" type="line"/>
      <point x="167" y="574"/>
      <point x="167" y="471"/>
      <point x="167" y="367" type="curve" smooth="yes"/>
      <point x="167" y="310" type="line" smooth="yes"/>
      <point x="167" y="206"/>
      <point x="167" y="102"/>
    </contour>
    <contour>
      <point x="58" y="656" type="line"/>
      <point x="175" y="649" type="line"/>
      <point x="189" y="649" type="line"/>
      <point x="306" y="656" type="line"/>
      <point x="306" y="676" type="line"/>
      <point x="58" y="676" type="line"/>
    </contour>
  </outline>
</glyph>
<glyph name="uni001E" format="2">
  <advance width="1173"/>
  <unicode hex="001E"/>
  <outline>
    <contour>
      <point x="46" y="0" type="line"/>
      <point x="264" y="0" type="line"/>
      <point x="264" y="20" type="line"/>
      <point x="157" y="27" type="line"/>
      <point x="143" y="27" type="line"/>
      <point x="46" y="20" type="line"/>
    </contour>
    <contour>
      <point x="36" y="656" type="line"/>
      <point x="153" y="649" type="line"/>
      <point x="157" y="649" type="line"/>
      <point x="157" y="676" type="line"/>
      <point x="36" y="676" type="line"/>
    </contour>
    <contour>
      <point x="1057" y="167" type="curve" smooth="yes"/>
      <point x="1020" y="167"/>
      <point x="994" y="198"/>
      <point x="994" y="234" type="curve" smooth="yes"/>
      <point x="994" y="270"/>
      <point x="1020" y="301"/>
      <point x="1057" y="301" type="curve" smooth="yes"/>
      <point x="1094" y="301"/>
      <point x="1120" y="270"/>
      <point x="1120" y="234" type="curve" smooth="yes"/>
      <point x="1120" y="198"/>
      <point x="1094" y="167"/>
    </contour>
    <contour>
      <point x="1057" y="147" type="curve" smooth="yes"/>
      <point x="1101" y="147"/>
      <point x="1143" y="181"/>
      <point x="1143" y="234" type="curve" smooth="yes"/>
      <point x="1143" y="287"/>
      <point x="1101" y="321"/>
      <point x="1057" y="321" type="curve" smooth="yes"/>
      <point x="1013" y="321"/>
      <point x="971" y="287"/>
      <point x="971" y="234" type="curve" smooth="yes"/>
      <point x="971" y="181"/>
      <point x="1013" y="147"/>
    </contour>
    <contour>
      <point x="138" y="0" type="line"/>
      <point x="162" y="0" type="line"/>
      <point x="162" y="380" type="line"/>
      <point x="157" y="676" type="line"/>
      <point x="138" y="676" type="line"/>
    </contour>
    <contour>
      <point x="427" y="0" type="line"/>
      <point x="439" y="0" type="line"/>
      <point x="708" y="640" type="line"/>
      <point x="714" y="655" type="line"/>
      <point x="718" y="655" type="line"/>
      <point x="718" y="676" type="line"/>
      <point x="696" y="676" type="line"/>
      <point x="432" y="45" type="line"/>
      <point x="430" y="40" type="line"/>
      <point x="439" y="40" type="line"/>
      <point x="171" y="676" type="line"/>
      <point x="143" y="676" type="line"/>
      <point x="143" y="655" type="line"/>
      <point x="147" y="655" type="line"/>
    </contour>
    <contour>
      <point x="591" y="0" type="line"/>
      <point x="839" y="0" type="line"/>
      <point x="839" y="20" type="line"/>
      <point x="722" y="27" type="line"/>
      <point x="708" y="27" type="line"/>
      <point x="591" y="20" type="line"/>
    </contour>
    <contour>
      <point x="698" y="0" type="curve"/>
      <point x="732" y="0" type="line"/>
      <point x="730" y="102"/>
      <point x="730" y="206"/>
      <point x="730" y="310" type="curve" smooth="yes"/>
      <point x="730" y="367" type="line" smooth="yes"/>
      <point x="730" y="471"/>
      <point x="730" y="574"/>
      <point x="732" y="676" type="curve"/>
      <point x="703" y="676" type="line"/>
      <point x="700" y="300" type="line" smooth="yes"/>
      <point x="699" y="206"/>
      <point x="700" y="102"/>
    </contour>
    <contour>
      <point x="715" y="649" type="line"/>
      <point x="722" y="649" type="line"/>
      <point x="839" y="656" type="line"/>
      <point x="839" y="676" type="line"/>
      <point x="715" y="676" type="line"/>
    </contour>
  </outline>
</glyph>
<glyph name="uni001E" format="2">
  <advance width="1032"/>
  <unicode hex="001E"/>
  <outline>
    <contour>
      <point x="260" y="0" type="line"/>
      <point x="518" y="0" type="line"/>
      <point x="518" y="20" type="line"/>
      <point x="391" y="27" type="line"/>
      <point x="377" y="27" type="line"/>
      <point x="260" y="20" type="line"/>
    </contour>
    <contour>
      <point x="465" y="743" type="curve" smooth="yes"/>
      <point x="481" y="743"/>
      <point x="497" y="756"/>
      <point x="497" y="775" type="curve" smooth="yes"/>
      <point x="497" y="794"/>
      <point x="481" y="807"/>
      <point x="465" y="807" type="curve" smooth="yes"/>
      <point x="449" y="807"/>
      <point x="433" y="794"/>
      <point x="433" y="775" type="curve" smooth="yes"/>
      <point x="433" y="756"/>
      <point x="449" y="743"/>
    </contour>
    <contour>
      <point x="367" y="0" type="curve"/>
      <point x="401" y="0" type="line"/>
      <point x="399" y="102"/>
      <point x="399" y="206"/>
      <point x="399" y="300" type="curve" smooth="yes"/>
      <point x="399" y="367" type="line" smooth="yes"/>
      <point x="399" y="471"/>
      <point x="399" y="574"/>
      <point x="401" y="676" type="curve"/>
      <point x="367" y="676" type="line"/>
      <point x="369" y="574"/>
      <point x="369" y="471"/>
      <point x="369" y="367" type="curve" smooth="yes"/>
      <point x="369" y="310" type="line" smooth="yes"/>
      <point x="369" y="206"/>
      <point x="369" y="102"/>
    </contour>
    <contour>
      <point x="384" y="285" type="line"/>
      <point x="470" y="285" type="line" smooth="yes"/>
      <point x="645" y="285"/>
      <point x="732" y="368"/>
      <point x="732" y="484" type="curve" smooth="yes"/>
      <point x="732" y="604"/>
      <point x="660" y="676"/>
      <point x="512" y="676" type="curve" smooth="yes"/>
      <point x="384" y="676" type="line"/>
      <point x="384" y="654" type="line"/>
      <point x="507" y="654" type="line" smooth="yes"/>
      <point x="644" y="654"/>
      <point x="702" y="596"/>
      <point x="702" y="484" type="curve" smooth="yes"/>
      <point x="702" y="380"/>
      <point x="634" y="305"/>
      <point x="458" y="305" type="curve" smooth="yes"/>
      <point x="384" y="305" type="line"/>
    </contour>
    <contour>
      <point x="260" y="656" type="line"/>
      <point x="377" y="649" type="line"/>
      <point x="384" y="649" type="line"/>
      <point x="384" y="676" type="line"/>
      <point x="260" y="676" type="line"/>
    </contour>
  </outline>
</glyph>
<glyph name="uni001E" format="2">
  <advance width="1073"/>
  <unicode hex="001E"/>
  <outline>
    <contour>
      <point x="480" y="748" type="curve" smooth="yes"/>
      <point x="443" y="748"/>
      <point x="417" y="779"/>
      <point x="417" y="815" type="curve" smooth="yes"/>
      <point x="417" y="851"/>
      <point x="443" y="882"/>
      <point x="480" y="882" type="curve" smooth="yes"/>
      <point x="517" y="882"/>
      <point x="543" y="851"/>
      <point x="543" y="815" type="curve" smooth="yes"/>
      <point x="543" y="779"/>
      <point x="517" y="748"/>
    </contour>
    <contour>
      <point x="480" y="728" type="curve" smooth="yes"/>
      <point x="524" y="728"/>
      <point x="566" y="762"/>
      <point x="566" y="815" type="curve" smooth="yes"/>
      <point x="566" y="868"/>
      <point x="524" y="902"/>
      <point x="480" y="902" type="curve" smooth="yes"/>
      <point x="436" y="902"/>
      <point x="394" y="868"/>
      <point x="394" y="815" type="curve" smooth="yes"/>
      <point x="394" y="762"/>
      <point x="436" y="728"/>
    </contour>
    <contour>
      <point x="496" y="-13" type="curve" smooth="yes"/>
      <point x="621" y="-13"/>
      <point x="713" y="53"/>
      <point x="713" y="164" type="curve" smooth="yes"/>
      <point x="713" y="253"/>
      <point x="678" y="302"/>
      <point x="529" y="362" type="curve" smooth="yes"/>
      <point x="489" y="378" type="line" smooth="yes"/>
      <point x="410" y="410"/>
      <point x="360" y="452"/>
      <point x="360" y="530" type="curve" smooth="yes"/>
      <point x="360" y="623"/>
      <point x="429" y="667"/>
      <point x="525" y="667" type="curve" smooth="yes"/>
      <point x="582" y="667"/>
      <point x="622" y="655"/>
      <point x="665" y="625" type="curve"/>
      <point x="665" y="637" type="line"/>
      <point x="650" y="646" type="line"/>
      <point x="660" y="521" type="line"/>
      <point x="682" y="521" type="line"/>
      <point x="685" y="641" type="line"/>
      <point x="638" y="672"/>
      <point x="597" y="689"/>
      <point x="524" y="689" type="curve" smooth="yes"/>
      <point x="426" y="689"/>
      <point x="333" y="642"/>
      <point x="333" y="527" type="curve" smooth="yes"/>
      <point x="333" y="445"/>
      <point x="381" y="389"/>
      <point x="488" y="346" type="curve" smooth="yes"/>
      <point x="525" y="331" type="line" smooth="yes"/>
      <point x="653" y="279"/>
      <point x="686" y="237"/>
      <point x="686" y="163" type="curve" smooth="yes"/>
      <point x="686" y="58"/>
      <point x="606" y="9"/>
      <point x="496" y="9" type="curve" smooth="yes"/>
      <point x="428" y="9"/>
      <point x="383" y="20"/>
      <point x="326" y="63" type="curve"/>
      <point x="326" y="47" type="line"/>
      <point x="345" y="36" type="line"/>
      <point x="332" y="167" type="line"/>
      <point x="313" y="167" type="line"/>
      <point x="308" y="41" type="line"/>
      <point x="347" y="14"/>
      <point x="417" y="-13"/>
    </contour>
  </outline>
</glyph>
<glyph name="uni001E" format="2">
  <advance width="1488"/>
  <unicode hex="001E"/>
  <outline>
    <contour>
      <point x="793" y="-13" type="curve" smooth="yes"/>
      <point x="951" y="-13"/>
      <point x="1022" y="82"/>
      <point x="1022" y="248" type="curve" smooth="yes"/>
      <point x="1022" y="676" type="line"/>
      <point x="998" y="676" type="line"/>
      <point x="998" y="274" type="line" smooth="yes"/>
      <point x="998" y="87"/>
      <point x="938" y="13"/>
      <point x="793" y="13" type="curve" smooth="yes"/>
      <point x="677" y="13"/>
      <point x="601" y="80"/>
      <point x="601" y="256" type="curve" smooth="yes"/>
      <point x="601" y="361" type="line" smooth="yes"/>
      <point x="601" y="469"/>
      <point x="601" y="572"/>
      <point x="603" y="676" type="curve"/>
      <point x="569" y="676" type="line"/>
      <point x="571" y="572"/>
      <point x="571" y="467"/>
      <point x="571" y="361" type="curve" smooth="yes"/>
      <point x="571" y="249" type="line" smooth="yes"/>
      <point x="571" y="61"/>
      <point x="657" y="-13"/>
    </contour>
    <contour>
      <point x="473" y="656" type="line"/>
      <point x="580" y="649" type="line"/>
      <point x="594" y="649" type="line"/>
      <point x="711" y="656" type="line"/>
      <point x="711" y="676" type="line"/>
      <point x="473" y="676" type="line"/>
    </contour>
    <contour>
      <point x="601" y="750" type="curve" smooth="yes"/>
      <point x="616" y="750"/>
      <point x="630" y="761"/>
      <point x="630" y="780" type="curve" smooth="yes"/>
      <point x="630" y="798"/>
      <point x="616" y="809"/>
      <point x="601" y="809" type="curve" smooth="yes"/>
      <point x="586" y="809"/>
      <point x="572" y="798"/>
      <point x="572" y="780" type="curve" smooth="yes"/>
      <point x="572" y="761"/>
      <point x="586" y="750"/>
    </contour>
    <contour>
      <point x="789" y="750" type="curve" smooth="yes"/>
      <point x="804" y="750"/>
      <point x="818" y="761"/>
      <point x="818" y="780" type="curve" smooth="yes"/>
      <point x="818" y="798"/>
      <point x="804" y="809"/>
      <point x="789" y="809" type="curve" smooth="yes"/>
      <point x="774" y="809"/>
      <point x="760" y="798"/>
      <point x="760" y="780" type="curve" smooth="yes"/>
      <point x="760" y="761"/>
      <point x="774" y="750"/>
    </contour>
    <contour>
      <point x="876" y="656" type="line"/>
      <point x="1003" y="649" type="line"/>
      <point x="1017" y="649" type="line"/>
      <point x="1112" y="656" type="line"/>
      <point x="1112" y="676" type="line"/>
      <point x="876" y="676" type="line"/>
    </contour>
  </outline>
</glyph>
<glyph name="uni001E" format="2">
  <advance width="965"/>
  <unicode hex="001E"/>
  <outline>
    <contour>
      <point x="20" y="0" type="line"/>
      <point x="248" y="0" type="line"/>
      <point x="248" y="20" type="line"/>
      <point x="128" y="27" type="line"/>
      <point x="114" y="27" type="line"/>
      <point x="20" y="20" type="line"/>
    </contour>
    <contour>
      <point x="849" y="167" type="curve" smooth="yes"/>
      <point x="812" y="167"/>
      <point x="786" y="198"/>
      <point x="786" y="234" type="curve" smooth="yes"/>
      <point x="786" y="270"/>
      <point x="812" y="301"/>
      <point x="849" y="301" type="curve" smooth="yes"/>
      <point x="886" y="301"/>
      <point x="912" y="270"/>
      <point x="912" y="234" type="curve" smooth="yes"/>
      <point x="912" y="198"/>
      <point x="886" y="167"/>
    </contour>
    <contour>
      <point x="849" y="147" type="curve" smooth="yes"/>
      <point x="893" y="147"/>
      <point x="935" y="181"/>
      <point x="935" y="234" type="curve" smooth="yes"/>
      <point x="935" y="287"/>
      <point x="893" y="321"/>
      <point x="849" y="321" type="curve" smooth="yes"/>
      <point x="805" y="321"/>
      <point x="763" y="287"/>
      <point x="763" y="234" type="curve" smooth="yes"/>
      <point x="763" y="181"/>
      <point x="805" y="147"/>
    </contour>
    <contour>
      <point x="89" y="0" type="line"/>
      <point x="119" y="0" type="line"/>
      <point x="316" y="326" type="line"/>
      <point x="317" y="328" type="line"/>
      <point x="320" y="328" type="line"/>
      <point x="305" y="349" type="line"/>
    </contour>
    <contour>
      <point x="389" y="0" type="line"/>
      <point x="617" y="0" type="line"/>
      <point x="617" y="20" type="line"/>
      <point x="517" y="27" type="line"/>
      <point x="503" y="27" type="line"/>
      <point x="389" y="20" type="line"/>
    </contour>
    <contour>
      <point x="329" y="342" type="line"/>
      <point x="533" y="676" type="line"/>
      <point x="504" y="676" type="line"/>
      <point x="320" y="365" type="line"/>
      <point x="318" y="362" type="line"/>
      <point x="316" y="362" type="line"/>
    </contour>
    <contour>
      <point x="509" y="0" type="line"/>
      <point x="541" y="0" type="line"/>
      <point x="137" y="676" type="line"/>
      <point x="105" y="676" type="line"/>
    </contour>
    <contour>
      <point x="33" y="656" type="line"/>
      <point x="130" y="649" type="line"/>
      <point x="144" y="649" type="line"/>
      <point x="261" y="656" type="line"/>
      <point x="261" y="676" type="line"/>
      <point x="33" y="676" type="line"/>
    </contour>
    <contour>
      <point x="382" y="656" type="line"/>
      <point x="499" y="649" type="line"/>
      <point x="513" y="649" type="line"/>
      <point x="610" y="656" type="line"/>
      <point x="610" y="676" type="line"/>
      <point x="382" y="676" type="line"/>
    </contour>
  </outline>
</glyph>
<glyph name="uni001E" format="2">
  <advance width="967"/>
  <unicode hex="001E"/>
  <outline>
    <contour>
      <point x="346" y="0" type="line"/>
      <point x="614" y="0" type="line"/>
      <point x="614" y="20" type="line"/>
      <point x="487" y="27" type="line"/>
      <point x="473" y="27" type="line"/>
      <point x="346" y="20" type="line"/>
    </contour>
    <contour>
      <point x="463" y="0" type="curve"/>
      <point x="497" y="0" type="line"/>
      <point x="495" y="97"/>
      <point x="495" y="115"/>
      <point x="495" y="289" type="curve"/>
      <point x="465" y="289" type="line"/>
      <point x="465" y="115"/>
      <point x="465" y="97"/>
    </contour>
    <contour>
      <point x="400" y="709" type="line"/>
      <point x="420" y="709" type="line"/>
      <point x="426" y="897" type="line"/>
      <point x="394" y="897" type="line"/>
    </contour>
    <contour>
      <point x="475" y="253" type="line"/>
      <point x="485" y="253" type="line"/>
      <point x="698" y="676" type="line"/>
      <point x="672" y="676" type="line"/>
      <point x="479" y="286" type="line"/>
      <point x="475" y="279" type="line"/>
      <point x="492" y="279" type="line"/>
      <point x="293" y="676" type="line"/>
      <point x="261" y="676" type="line"/>
    </contour>
    <contour>
      <point x="193" y="656" type="line"/>
      <point x="285" y="649" type="line"/>
      <point x="299" y="649" type="line"/>
      <point x="416" y="656" type="line"/>
      <point x="416" y="676" type="line"/>
      <point x="193" y="676" type="line"/>
    </contour>
    <contour>
      <point x="548" y="656" type="line"/>
      <point x="664" y="649" type="line"/>
      <point x="678" y="649" type="line"/>
      <point x="771" y="656" type="line"/>
      <point x="771" y="676" type="line"/>
      <point x="548" y="676" type="line"/>
    </contour>
  </outline>
</glyph>
<glyph name="uni001E" format="2">
  <advance width="989"/>
  <unicode hex="001E"/>
  <outline>
    <contour>
      <point x="742" y="228" type="curve" smooth="yes"/>
      <point x="757" y="228"/>
      <point x="771" y="239"/>
      <point x="771" y="258" type="curve" smooth="yes"/>
      <point x="771" y="276"/>
      <point x="757" y="287"/>
      <point x="742" y="287" type="curve" smooth="yes"/>
      <point x="727" y="287"/>
      <point x="713" y="276"/>
      <point x="713" y="258" type="curve" smooth="yes"/>
      <point x="713" y="239"/>
      <point x="727" y="228"/>
    </contour>
    <contour>
      <point x="930" y="228" type="curve" smooth="yes"/>
      <point x="945" y="228"/>
      <point x="959" y="239"/>
      <point x="959" y="258" type="curve" smooth="yes"/>
      <point x="959" y="276"/>
      <point x="945" y="287"/>
      <point x="930" y="287" type="curve" smooth="yes"/>
      <point x="915" y="287"/>
      <point x="901" y="276"/>
      <point x="901" y="258" type="curve" smooth="yes"/>
      <point x="901" y="239"/>
      <point x="915" y="228"/>
    </contour>
    <contour>
      <point x="30" y="0" type="line"/>
      <point x="515" y="0" type="line"/>
      <point x="525" y="163" type="line"/>
      <point x="503" y="163" type="line"/>
      <point x="481" y="10" type="line"/>
      <point x="498" y="22" type="line"/>
      <point x="280" y="22" type="line"/>
      <point x="63" y="22" type="line"/>
      <point x="63" y="30" type="line"/>
      <point x="57" y="9" type="line"/>
      <point x="506" y="656" type="line"/>
      <point x="506" y="676" type="line"/>
      <point x="53" y="676" type="line"/>
      <point x="45" y="513" type="line"/>
      <point x="67" y="513" type="line"/>
      <point x="88" y="668" type="line"/>
      <point x="68" y="654" type="line"/>
      <point x="272" y="654" type="line"/>
      <point x="475" y="654" type="line"/>
      <point x="475" y="646" type="line"/>
      <point x="480" y="666" type="line"/>
      <point x="30" y="20" type="line"/>
    </contour>
  </outline>
</glyph>
<glyph name="uni001E" format="2">
  <advance width="978"/>
  <unicode hex="001E"/>
  <outline>
    <contour>
      <point x="375" y="-13" type="curve" smooth="yes"/>
      <point x="444" y="-13"/>
      <point x="491" y="21"/>
      <point x="553" y="90" type="curve"/>
      <point x="562" y="90" type="line"/>
      <point x="562" y="125" type="line"/>
      <point x="488" y="44"/>
      <point x="440" y="13"/>
      <point x="383" y="13" type="curve" smooth="yes"/>
      <point x="321" y="13"/>
      <point x="282" y="49"/>
      <point x="282" y="110" type="curve" smooth="yes"/>
      <point x="282" y="162"/>
      <point x="321" y="201"/>
      <point x="402" y="231" type="curve" smooth="yes"/>
      <point x="453" y="250"/>
      <point x="513" y="265"/>
      <point x="564" y="277" type="curve"/>
      <point x="564" y="295" type="line"/>
      <point x="513" y="283"/>
      <point x="457" y="272"/>
      <point x="401" y="254" type="curve" smooth="yes"/>
      <point x="303" y="222"/>
      <point x="252" y="176"/>
      <point x="252" y="104" type="curve" smooth="yes"/>
      <point x="252" y="29"/>
      <point x="304" y="-13"/>
    </contour>
    <contour>
      <point x="439" y="588" type="curve" smooth="yes"/>
      <point x="455" y="588"/>
      <point x="471" y="601"/>
      <point x="471" y="620" type="curve" smooth="yes"/>
      <point x="471" y="639"/>
      <point x="455" y="652"/>
      <point x="439" y="652" type="curve" smooth="yes"/>
      <point x="423" y="652"/>
      <point x="407" y="639"/>
      <point x="407" y="620" type="curve" smooth="yes"/>
      <point x="407" y="601"/>
      <point x="423" y="588"/>
    </contour>
    <contour>
      <point x="619" y="-12" type="curve" smooth="yes"/>
      <point x="643" y="-12"/>
      <point x="667" y="0"/>
      <point x="683" y="16" type="curve"/>
      <point x="671" y="28" type="line"/>
      <point x="655" y="16"/>
      <point x="643" y="12"/>
      <point x="627" y="12" type="curve" smooth="yes"/>
      <point x="595" y="12"/>
      <point x="579" y="32"/>
      <point x="579" y="112" type="curve" smooth="yes"/>
      <point x="579" y="340" type="line" smooth="yes"/>
      <point x="579" y="440"/>
      <point x="527" y="484"/>
      <point x="431" y="484" type="curve" smooth="yes"/>
      <point x="347" y="484"/>
      <point x="287" y="444"/>
      <point x="263" y="372" type="curve"/>
      <point x="267" y="360"/>
      <point x="275" y="352"/>
      <point x="287" y="352" type="curve" smooth="yes"/>
      <point x="299" y="352"/>
      <point x="307" y="356"/>
      <point x="311" y="372" type="curve" smooth="yes"/>
      <point x="327" y="440" type="line"/>
      <point x="303" y="416" type="line"/>
      <point x="343" y="448"/>
      <point x="383" y="464"/>
      <point x="431" y="464" type="curve" smooth="yes"/>
      <point x="511" y="464"/>
      <point x="551" y="436"/>
      <point x="551" y="324" type="curve" smooth="yes"/>
      <point x="551" y="104" type="line"/>
      <point x="551" y="100" type="line"/>
      <point x="555" y="28"/>
      <point x="571" y="-12"/>
    </contour>
  </outline>
</glyph>
<glyph name="uni001E" format="2">
  <advance width="1033"/>
  <unicode hex="001E"/>
  <outline>
    <contour>
      <point x="464" y="554" type="curve" smooth="yes"/>
      <point x="427" y="554"/>
      <point x="401" y="585"/>
      <point x="401" y="621" type="curve" smooth="yes"/>
      <point x="401" y="657"/>
      <point x="427" y="688"/>
      <point x="464" y="688" type="curve" smooth="yes"/>
      <point x="501" y="688"/>
      <point x="527" y="657"/>
      <point x="527" y="621" type="curve" smooth="yes"/>
      <point x="527" y="585"/>
      <point x="501" y="554"/>
    </contour>
    <contour>
      <point x="464" y="534" type="curve" smooth="yes"/>
      <point x="508" y="534"/>
      <point x="550" y="568"/>
      <point x="550" y="621" type="curve" smooth="yes"/>
      <point x="550" y="674"/>
      <point x="508" y="708"/>
      <point x="464" y="708" type="curve" smooth="yes"/>
      <point x="420" y="708"/>
      <point x="378" y="674"/>
      <point x="378" y="621" type="curve" smooth="yes"/>
      <point x="378" y="568"/>
      <point x="420" y="534"/>
    </contour>
    <contour>
      <point x="534" y="-13" type="curve" smooth="yes"/>
      <point x="611" y="-13"/>
      <point x="664" y="21"/>
      <point x="704" y="69" type="curve"/>
      <point x="693" y="79" type="line"/>
      <point x="650" y="35"/>
      <point x="595" y="13"/>
      <point x="536" y="13" type="curve" smooth="yes"/>
      <point x="423" y="13"/>
      <point x="346" y="100"/>
      <point x="346" y="232" type="curve" smooth="yes"/>
      <point x="346" y="369"/>
      <point x="431" y="463"/>
      <point x="540" y="463" type="curve" smooth="yes"/>
      <point x="581" y="463"/>
      <point x="615" y="451"/>
      <point x="658" y="418" type="curve"/>
      <point x="626" y="451" type="line"/>
      <point x="655" y="377" type="line" smooth="yes"/>
      <point x="660" y="364"/>
      <point x="668" y="358"/>
      <point x="681" y="358" type="curve" smooth="yes"/>
      <point x="692" y="358"/>
      <point x="700" y="365"/>
      <point x="703" y="378" type="curve"/>
      <point x="673" y="448"/>
      <point x="612" y="483"/>
      <point x="542" y="483" type="curve" smooth="yes"/>
      <point x="424" y="483"/>
      <point x="314" y="391"/>
      <point x="314" y="231" type="curve" smooth="yes"/>
      <point x="314" y="80"/>
      <point x="401" y="-13"/>
    </contour>
  </outline>
</glyph>
<glyph name="uni001E" format="2">
  <advance width="1285"/>
  <unicode hex="001E"/>
  <outline>
    <contour>
      <point x="516" y="603" type="curve" smooth="yes"/>
      <point x="531" y="603"/>
      <point x="545" y="614"/>
      <point x="545" y="633" type="curve" smooth="yes"/>
      <point x="545" y="651"/>
      <point x="531" y="662"/>
      <point x="516" y="662" type="curve" smooth="yes"/>
      <point x="501" y="662"/>
      <point x="487" y="651"/>
      <point x="487" y="633" type="curve" smooth="yes"/>
      <point x="487" y="614"/>
      <point x="501" y="603"/>
    </contour>
    <contour>
      <point x="704" y="603" type="curve" smooth="yes"/>
      <point x="719" y="603"/>
      <point x="733" y="614"/>
      <point x="733" y="633" type="curve" smooth="yes"/>
      <point x="733" y="651"/>
      <point x="719" y="662"/>
      <point x="704" y="662" type="curve" smooth="yes"/>
      <point x="689" y="662"/>
      <point x="675" y="651"/>
      <point x="675" y="633" type="curve" smooth="yes"/>
      <point x="675" y="614"/>
      <point x="689" y="603"/>
    </contour>
    <contour>
      <point x="691" y="-13" type="curve" smooth="yes"/>
      <point x="759" y="-13"/>
      <point x="823" y="18"/>
      <point x="864" y="69" type="curve"/>
      <point x="853" y="80" type="line"/>
      <point x="812" y="37"/>
      <point x="758" y="13"/>
      <point x="693" y="13" type="curve" smooth="yes"/>
      <point x="583" y="13"/>
      <point x="500" y="82"/>
      <point x="500" y="244" type="curve" smooth="yes"/>
      <point x="500" y="358"/>
      <point x="574" y="463"/>
      <point x="680" y="463" type="curve" smooth="yes"/>
      <point x="778" y="463"/>
      <point x="831" y="385"/>
      <point x="831" y="302" type="curve" smooth="yes"/>
      <point x="831" y="273"/>
      <point x="825" y="263"/>
      <point x="811" y="263" type="curve" smooth="yes"/>
      <point x="486" y="263" type="line"/>
      <point x="486" y="242" type="line"/>
      <point x="855" y="242" type="line"/>
      <point x="859" y="257"/>
      <point x="861" y="275"/>
      <point x="861" y="299" type="curve" smooth="yes"/>
      <point x="861" y="397"/>
      <point x="796" y="483"/>
      <point x="680" y="483" type="curve" smooth="yes"/>
      <point x="564" y="483"/>
      <point x="468" y="385"/>
      <point x="468" y="233" type="curve" smooth="yes"/>
      <point x="468" y="61"/>
      <point x="565" y="-13"/>
    </contour>
  </outline>
</glyph>
<glyph name="uni001E" format="2">
  <advance width="945"/>
  <unicode hex="001E"/>
  <outline>
    <contour>
      <point x="48" y="0" type="line"/>
      <point x="251" y="0" type="line"/>
      <point x="251" y="20" type="line"/>
      <point x="157" y="26" type="line"/>
      <point x="148" y="26" type="line"/>
      <point x="48" y="20" type="line"/>
    </contour>
    <contour>
      <point x="137" y="0" type="curve"/>
      <point x="171" y="0" type="line"/>
      <point x="169" y="45"/>
      <point x="168" y="148"/>
      <point x="168" y="210" type="curve" smooth="yes"/>
      <point x="168" y="350" type="line"/>
      <point x="168" y="359" type="line"/>
      <point x="168" y="598" type="line"/>
      <point x="170" y="740" type="line"/>
      <point x="154" y="748" type="line"/>
      <point x="49" y="736" type="line"/>
      <point x="49" y="716" type="line"/>
      <point x="140" y="716" type="line"/>
      <point x="140" y="210" type="line" smooth="yes"/>
      <point x="140" y="148"/>
      <point x="139" y="45"/>
    </contour>
    <contour>
      <point x="829" y="195" type="curve" smooth="yes"/>
      <point x="792" y="195"/>
      <point x="766" y="226"/>
      <point x="766" y="262" type="curve" smooth="yes"/>
      <point x="766" y="298"/>
      <point x="792" y="329"/>
      <point x="829" y="329" type="curve" smooth="yes"/>
      <point x="866" y="329"/>
      <point x="892" y="298"/>
      <point x="892" y="262" type="curve" smooth="yes"/>
      <point x="892" y="226"/>
      <point x="866" y="195"/>
    </contour>
    <contour>
      <point x="829" y="175" type="curve" smooth="yes"/>
      <point x="873" y="175"/>
      <point x="915" y="209"/>
      <point x="915" y="262" type="curve" smooth="yes"/>
      <point x="915" y="315"/>
      <point x="873" y="349"/>
      <point x="829" y="349" type="curve" smooth="yes"/>
      <point x="785" y="349"/>
      <point x="743" y="315"/>
      <point x="743" y="262" type="curve" smooth="yes"/>
      <point x="743" y="209"/>
      <point x="785" y="175"/>
    </contour>
    <contour>
      <point x="369" y="0" type="line"/>
      <point x="572" y="0" type="line"/>
      <point x="572" y="20" type="line"/>
      <point x="478" y="26" type="line"/>
      <point x="469" y="26" type="line"/>
      <point x="369" y="20" type="line"/>
    </contour>
    <contour>
      <point x="458" y="0" type="curve"/>
      <point x="492" y="0" type="line"/>
      <point x="490" y="45"/>
      <point x="489" y="146"/>
      <point x="489" y="210" type="curve" smooth="yes"/>
      <point x="489" y="314" type="line" smooth="yes"/>
      <point x="489" y="439"/>
      <point x="442" y="483"/>
      <point x="368" y="483" type="curve" smooth="yes"/>
      <point x="307" y="483"/>
      <point x="237" y="453"/>
      <point x="160" y="362" type="curve"/>
      <point x="154" y="362" type="line"/>
      <point x="161" y="337" type="line"/>
      <point x="245" y="435"/>
      <point x="318" y="455"/>
      <point x="361" y="455" type="curve" smooth="yes"/>
      <point x="420" y="455"/>
      <point x="461" y="417"/>
      <point x="461" y="315" type="curve" smooth="yes"/>
      <point x="461" y="210" type="line" smooth="yes"/>
      <point x="461" y="146"/>
      <point x="460" y="45"/>
    </contour>
  </outline>
</glyph>
<glyph name="uni001E" format="2">
  <advance width="615"/>
  <unicode hex="001E"/>
  <outline>
    <contour>
      <point x="198" y="0" type="line"/>
      <point x="401" y="0" type="line"/>
      <point x="401" y="20" type="line"/>
      <point x="307" y="26" type="line"/>
      <point x="298" y="26" type="line"/>
      <point x="198" y="20" type="line"/>
    </contour>
    <contour>
      <point x="287" y="0" type="curve"/>
      <point x="321" y="0" type="line"/>
      <point x="319" y="45"/>
      <point x="318" y="148"/>
      <point x="318" y="210" type="curve" smooth="yes"/>
      <point x="318" y="356" type="line"/>
      <point x="320" y="472" type="line"/>
      <point x="310" y="478" type="line"/>
      <point x="194" y="466" type="line"/>
      <point x="194" y="446" type="line"/>
      <point x="287" y="446" type="line"/>
      <point x="289" y="395"/>
      <point x="290" y="329"/>
      <point x="290" y="259" type="curve" smooth="yes"/>
      <point x="290" y="210" type="line" smooth="yes"/>
      <point x="290" y="148"/>
      <point x="289" y="45"/>
    </contour>
    <contour>
      <point x="256" y="819" type="line"/>
      <point x="276" y="819" type="line"/>
      <point x="282" y="1007" type="line"/>
      <point x="250" y="1007" type="line"/>
    </contour>
    <contour>
      <point x="294" y="625" type="curve" smooth="yes"/>
      <point x="310" y="625"/>
      <point x="326" y="638"/>
      <point x="326" y="657" type="curve" smooth="yes"/>
      <point x="326" y="676"/>
      <point x="310" y="689"/>
      <point x="294" y="689" type="curve" smooth="yes"/>
      <point x="278" y="689"/>
      <point x="262" y="676"/>
      <point x="262" y="657" type="curve" smooth="yes"/>
      <point x="262" y="638"/>
      <point x="278" y="625"/>
    </contour>
  </outline>
</glyph>
<glyph name="uni001E" format="2">
  <advance width="653"/>
  <unicode hex="001E"/>
  <outline>
    <contour>
      <point x="38" y="0" type="line"/>
      <point x="266" y="0" type="line"/>
      <point x="266" y="20" type="line"/>
      <point x="157" y="26" type="line"/>
      <point x="148" y="26" type="line"/>
      <point x="38" y="20" type="line"/>
    </contour>
    <contour>
      <point x="383" y="275" type="line"/>
      <point x="623" y="275" type="line"/>
      <point x="623" y="301" type="line"/>
      <point x="383" y="301" type="line"/>
    </contour>
    <contour>
      <point x="137" y="0" type="curve"/>
      <point x="171" y="0" type="line"/>
      <point x="169" y="45"/>
      <point x="168" y="148"/>
      <point x="168" y="210" type="curve" smooth="yes"/>
      <point x="168" y="598" type="line"/>
      <point x="170" y="740" type="line"/>
      <point x="156" y="748" type="line"/>
      <point x="49" y="736" type="line"/>
      <point x="49" y="716" type="line"/>
      <point x="140" y="716" type="line"/>
      <point x="140" y="210" type="line" smooth="yes"/>
      <point x="140" y="148"/>
      <point x="139" y="45"/>
    </contour>
  </outline>
</glyph>
<glyph name="uni001E" format="2">
  <advance width="1520"/>
  <unicode hex="001E"/>
  <outline>
    <contour>
      <point x="314" y="0" type="line"/>
      <point x="517" y="0" type="line"/>
      <point x="517" y="20" type="line"/>
      <point x="423" y="26" type="line"/>
      <point x="414" y="26" type="line"/>
      <point x="314" y="20" type="line"/>
    </contour>
    <contour>
      <point x="657" y="554" type="curve" smooth="yes"/>
      <point x="620" y="554"/>
      <point x="594" y="585"/>
      <point x="594" y="621" type="curve" smooth="yes"/>
      <point x="594" y="657"/>
      <point x="620" y="688"/>
      <point x="657" y="688" type="curve" smooth="yes"/>
      <point x="694" y="688"/>
      <point x="720" y="657"/>
      <point x="720" y="621" type="curve" smooth="yes"/>
      <point x="720" y="585"/>
      <point x="694" y="554"/>
    </contour>
    <contour>
      <point x="657" y="534" type="curve" smooth="yes"/>
      <point x="701" y="534"/>
      <point x="743" y="568"/>
      <point x="743" y="621" type="curve" smooth="yes"/>
      <point x="743" y="674"/>
      <point x="701" y="708"/>
      <point x="657" y="708" type="curve" smooth="yes"/>
      <point x="613" y="708"/>
      <point x="571" y="674"/>
      <point x="571" y="621" type="curve" smooth="yes"/>
      <point x="571" y="568"/>
      <point x="613" y="534"/>
    </contour>
    <contour>
      <point x="403" y="0" type="curve"/>
      <point x="437" y="0" type="line"/>
      <point x="435" y="45"/>
      <point x="434" y="148"/>
      <point x="434" y="210" type="curve" smooth="yes"/>
      <point x="434" y="365" type="line"/>
      <point x="434" y="366" type="line"/>
      <point x="432" y="472" type="line"/>
      <point x="422" y="478" type="line"/>
      <point x="310" y="466" type="line"/>
      <point x="310" y="446" type="line"/>
      <point x="403" y="446" type="line"/>
      <point x="405" y="395"/>
      <point x="406" y="329"/>
      <point x="406" y="259" type="curve" smooth="yes"/>
      <point x="406" y="210" type="line" smooth="yes"/>
      <point x="406" y="148"/>
      <point x="405" y="45"/>
    </contour>
    <contour>
      <point x="617" y="0" type="line"/>
      <point x="820" y="0" type="line"/>
      <point x="820" y="20" type="line"/>
      <point x="726" y="26" type="line"/>
      <point x="717" y="26" type="line"/>
      <point x="617" y="20" type="line"/>
    </contour>
    <contour>
      <point x="706" y="0" type="curve"/>
      <point x="740" y="0" type="line"/>
      <point x="738" y="45"/>
      <point x="737" y="146"/>
      <point x="737" y="210" type="curve" smooth="yes"/>
      <point x="737" y="314" type="line" smooth="yes"/>
      <point x="737" y="439"/>
      <point x="689" y="483"/>
      <point x="620" y="483" type="curve" smooth="yes"/>
      <point x="559" y="483"/>
      <point x="500" y="449"/>
      <point x="426" y="362" type="curve"/>
      <point x="420" y="362" type="line"/>
      <point x="427" y="337" type="line"/>
      <point x="510" y="435"/>
      <point x="572" y="455"/>
      <point x="618" y="455" type="curve" smooth="yes"/>
      <point x="667" y="455"/>
      <point x="709" y="416"/>
      <point x="709" y="315" type="curve" smooth="yes"/>
      <point x="709" y="210" type="line" smooth="yes"/>
      <point x="709" y="146"/>
      <point x="708" y="45"/>
    </contour>
    <contour>
      <point x="920" y="0" type="line"/>
      <point x="1123" y="0" type="line"/>
      <point x="1123" y="20" type="line"/>
      <point x="1029" y="26" type="line"/>
      <point x="1020" y="26" type="line"/>
      <point x="920" y="20" type="line"/>
    </contour>
    <contour>
      <point x="1009" y="0" type="curve"/>
      <point x="1043" y="0" type="line"/>
      <point x="1041" y="45"/>
      <point x="1040" y="146"/>
      <point x="1040" y="210" type="curve" smooth="yes"/>
      <point x="1040" y="314" type="line" smooth="yes"/>
      <point x="1040" y="438"/>
      <point x="994" y="483"/>
      <point x="917" y="483" type="curve" smooth="yes"/>
      <point x="855" y="483"/>
      <point x="792" y="449"/>
      <point x="727" y="372" type="curve"/>
      <point x="721" y="372" type="line"/>
      <point x="729" y="348" type="line"/>
      <point x="803" y="435"/>
      <point x="868" y="455"/>
      <point x="915" y="455" type="curve" smooth="yes"/>
      <point x="971" y="455"/>
      <point x="1012" y="417"/>
      <point x="1012" y="315" type="curve" smooth="yes"/>
      <point x="1012" y="210" type="line" smooth="yes"/>
      <point x="1012" y="146"/>
      <point x="1011" y="45"/>
    </contour>
  </outline>
</glyph>
<glyph name="uni001E" format="2">
  <advance width="1342"/>
  <unicode hex="001E"/>
  <outline>
    <contour>
      <point x="540" y="603" type="curve" smooth="yes"/>
      <point x="555" y="603"/>
      <point x="569" y="614"/>
      <point x="569" y="633" type="curve" smooth="yes"/>
      <point x="569" y="651"/>
      <point x="555" y="662"/>
      <point x="540" y="662" type="curve" smooth="yes"/>
      <point x="525" y="662"/>
      <point x="511" y="651"/>
      <point x="511" y="633" type="curve" smooth="yes"/>
      <point x="511" y="614"/>
      <point x="525" y="603"/>
    </contour>
    <contour>
      <point x="728" y="603" type="curve" smooth="yes"/>
      <point x="743" y="603"/>
      <point x="757" y="614"/>
      <point x="757" y="633" type="curve" smooth="yes"/>
      <point x="757" y="651"/>
      <point x="743" y="662"/>
      <point x="728" y="662" type="curve" smooth="yes"/>
      <point x="713" y="662"/>
      <point x="699" y="651"/>
      <point x="699" y="633" type="curve" smooth="yes"/>
      <point x="699" y="614"/>
      <point x="713" y="603"/>
    </contour>
    <contour>
      <point x="685" y="-13" type="curve" smooth="yes"/>
      <point x="792" y="-13"/>
      <point x="902" y="62"/>
      <point x="902" y="233" type="curve" smooth="yes"/>
      <point x="902" y="404"/>
      <point x="792" y="483"/>
      <point x="685" y="483" type="curve" smooth="yes"/>
      <point x="578" y="483"/>
      <point x="468" y="404"/>
      <point x="468" y="233" type="curve" smooth="yes"/>
      <point x="468" y="62"/>
      <point x="578" y="-13"/>
    </contour>
    <contour>
      <point x="685" y="7" type="curve" smooth="yes"/>
      <point x="574" y="7"/>
      <point x="500" y="92"/>
      <point x="500" y="233" type="curve" smooth="yes"/>
      <point x="500" y="374"/>
      <point x="574" y="463"/>
      <point x="685" y="463" type="curve" smooth="yes"/>
      <point x="796" y="463"/>
      <point x="870" y="374"/>
      <point x="870" y="233" type="curve" smooth="yes"/>
      <point x="870" y="92"/>
      <point x="796" y="7"/>
    </contour>
  </outline>
</glyph>
<glyph name="uni001E" format="2">
  <advance width="1099"/>
  <unicode hex="001E"/>
  <outline>
    <contour>
      <point x="356" y="721" type="line"/>
      <point x="596" y="721" type="line"/>
      <point x="596" y="747" type="line"/>
      <point x="356" y="747" type="line"/>
    </contour>
    <contour>
      <point x="332" y="0" type="line"/>
      <point x="676" y="0" type="line"/>
      <point x="676" y="20" type="line"/>
      <point x="516" y="26" type="line"/>
      <point x="502" y="26" type="line"/>
      <point x="332" y="20" type="line"/>
    </contour>
    <contour>
      <point x="492" y="0" type="curve"/>
      <point x="526" y="0" type="line"/>
      <point x="524" y="72"/>
      <point x="523" y="143"/>
      <point x="523" y="213" type="curve" smooth="yes"/>
      <point x="523" y="506" type="line"/>
      <point x="527" y="652" type="line"/>
      <point x="513" y="664" type="line"/>
      <point x="340" y="615" type="line"/>
      <point x="340" y="595" type="line"/>
      <point x="495" y="630" type="line"/>
      <point x="495" y="213" type="line" smooth="yes"/>
      <point x="495" y="143"/>
      <point x="494" y="72"/>
    </contour>
  </outline>
</glyph>
<glyph name="uni001E" format="2">
  <advance width="1270"/>
  <unicode hex="001E"/>
  <outline>
    <contour>
      <point x="604" y="-245" type="line"/>
      <point x="827" y="-245" type="line"/>
      <point x="827" y="-225" type="line"/>
      <point x="727" y="-219" type="line"/>
      <point x="718" y="-219" type="line"/>
      <point x="604" y="-225" type="line"/>
    </contour>
    <contour>
      <point x="543" y="-13" type="curve" smooth="yes"/>
      <point x="603" y="-13"/>
      <point x="662" y="11"/>
      <point x="711" y="76" type="curve"/>
      <point x="720" y="76" type="line"/>
      <point x="711" y="104" type="line"/>
      <point x="660" y="38"/>
      <point x="610" y="12"/>
      <point x="546" y="12" type="curve" smooth="yes"/>
      <point x="452" y="12"/>
      <point x="378" y="85"/>
      <point x="378" y="227" type="curve" smooth="yes"/>
      <point x="378" y="385"/>
      <point x="458" y="458"/>
      <point x="558" y="458" type="curve" smooth="yes"/>
      <point x="619" y="458"/>
      <point x="665" y="430"/>
      <point x="711" y="374" type="curve"/>
      <point x="719" y="397" type="line"/>
      <point x="712" y="397" type="line"/>
      <point x="666" y="458"/>
      <point x="608" y="483"/>
      <point x="558" y="483" type="curve" smooth="yes"/>
      <point x="438" y="483"/>
      <point x="346" y="387"/>
      <point x="346" y="227" type="curve" smooth="yes"/>
      <point x="346" y="86"/>
      <point x="427" y="-13"/>
    </contour>
    <contour>
      <point x="421" y="561" type="line"/>
      <point x="661" y="561" type="line"/>
      <point x="661" y="587" type="line"/>
      <point x="421" y="587" type="line"/>
    </contour>
    <contour>
      <point x="703" y="-245" type="curve"/>
      <point x="737" y="-245" type="line"/>
      <point x="735" y="-175"/>
      <point x="734" y="-105"/>
      <point x="734" y="-35" type="curve" smooth="yes"/>
      <point x="734" y="335" type="line"/>
      <point x="737" y="470" type="line"/>
      <point x="718" y="473" type="line"/>
      <point x="706" y="394" type="line"/>
      <point x="706" y="392" type="line"/>
      <point x="706" y="86" type="line"/>
      <point x="706" y="83" type="line"/>
      <point x="706" y="-35" type="line" smooth="yes"/>
      <point x="706" y="-105"/>
      <point x="705" y="-175"/>
    </contour>
  </outline>
</glyph>
<glyph name="uni001E" format="2">
  <advance width="1052"/>
  <unicode hex="001E"/>
  <outline>
    <contour>
      <point x="474" y="572" type="curve" smooth="yes"/>
      <point x="490" y="572"/>
      <point x="506" y="585"/>
      <point x="506" y="604" type="curve" smooth="yes"/>
      <point x="506" y="623"/>
      <point x="490" y="636"/>
      <point x="474" y="636" type="curve" smooth="yes"/>
      <point x="458" y="636"/>
      <point x="442" y="623"/>
      <point x="442" y="604" type="curve" smooth="yes"/>
      <point x="442" y="585"/>
      <point x="458" y="572"/>
    </contour>
    <contour>
      <point x="475" y="-13" type="curve" smooth="yes"/>
      <point x="558" y="-13"/>
      <point x="618" y="39"/>
      <point x="666" y="103" type="curve"/>
      <point x="675" y="103" type="line"/>
      <point x="660" y="122" type="line"/>
      <point x="609" y="54"/>
      <point x="547" y="15"/>
      <point x="480" y="15" type="curve" smooth="yes"/>
      <point x="408" y="15"/>
      <point x="367" y="57"/>
      <point x="367" y="178" type="curve" smooth="yes"/>
      <point x="367" y="356" type="line"/>
      <point x="371" y="462" type="line"/>
      <point x="362" y="474" type="line"/>
      <point x="253" y="468" type="line"/>
      <point x="253" y="448" type="line"/>
      <point x="354" y="441" type="line"/>
      <point x="341" y="452" type="line"/>
      <point x="339" y="175" type="line" smooth="yes"/>
      <point x="338" y="33"/>
      <point x="382" y="-13"/>
    </contour>
    <contour>
      <point x="657" y="-6" type="line"/>
      <point x="767" y="0" type="line"/>
      <point x="767" y="20" type="line"/>
      <point x="688" y="25" type="line"/>
      <point x="688" y="356" type="line"/>
      <point x="692" y="462" type="line"/>
      <point x="683" y="474" type="line"/>
      <point x="574" y="468" type="line"/>
      <point x="574" y="447" type="line"/>
      <point x="660" y="442" type="line"/>
      <point x="660" y="111" type="line"/>
      <point x="660" y="110" type="line"/>
    </contour>
  </outline>
</glyph>
<glyph name="uni001E" format="2">
  <advance width="932"/>
  <unicode hex="001E"/>
  <outline>
    <contour>
      <point x="237" y="-6" type="line"/>
      <point x="255" y="-6" type="line"/>
      <point x="432" y="470" type="line"/>
      <point x="407" y="470" type="line"/>
      <point x="248" y="30" type="line"/>
      <point x="245" y="22" type="line"/>
      <point x="255" y="22" type="line"/>
      <point x="89" y="470" type="line"/>
      <point x="56" y="470" type="line"/>
    </contour>
    <contour>
      <point x="-10" y="450" type="line"/>
      <point x="79" y="444" type="line"/>
      <point x="88" y="444" type="line"/>
      <point x="183" y="450" type="line"/>
      <point x="183" y="470" type="line"/>
      <point x="-10" y="470" type="line"/>
    </contour>
    <contour>
      <point x="662" y="193" type="line"/>
      <point x="902" y="193" type="line"/>
      <point x="902" y="219" type="line"/>
      <point x="662" y="219" type="line"/>
    </contour>
    <contour>
      <point x="309" y="450" type="line"/>
      <point x="403" y="444" type="line"/>
      <point x="412" y="444" type="line"/>
      <point x="492" y="450" type="line"/>
      <point x="492" y="470" type="line"/>
      <point x="309" y="470" type="line"/>
    </contour>
  </outline>
</glyph>
<glyph name="uni001E" format="2">
  <advance width="1454"/>
  <unicode hex="001E"/>
  <outline>
    <contour>
      <point x="637" y="538" type="curve" smooth="yes"/>
      <point x="600" y="538"/>
      <point x="574" y="569"/>
      <point x="574" y="605" type="curve" smooth="yes"/>
      <point x="574" y="641"/>
      <point x="600" y="672"/>
      <point x="637" y="672" type="curve" smooth="yes"/>
      <point x="674" y="672"/>
      <point x="700" y="641"/>
      <point x="700" y="605" type="curve" smooth="yes"/>
      <point x="700" y="569"/>
      <point x="674" y="538"/>
    </contour>
    <contour>
      <point x="637" y="518" type="curve" smooth="yes"/>
      <point x="681" y="518"/>
      <point x="723" y="552"/>
      <point x="723" y="605" type="curve" smooth="yes"/>
      <point x="723" y="658"/>
      <point x="681" y="692"/>
      <point x="637" y="692" type="curve" smooth="yes"/>
      <point x="593" y="692"/>
      <point x="551" y="658"/>
      <point x="551" y="605" type="curve" smooth="yes"/>
      <point x="551" y="552"/>
      <point x="593" y="518"/>
    </contour>
    <contour>
      <point x="512" y="-6" type="line"/>
      <point x="529" y="-6" type="line"/>
      <point x="686" y="448" type="line"/>
      <point x="690" y="459" type="line"/>
      <point x="670" y="459" type="line"/>
      <point x="826" y="-6" type="line"/>
      <point x="842" y="-6" type="line"/>
      <point x="995" y="470" type="line"/>
      <point x="971" y="470" type="line"/>
      <point x="833" y="28" type="line"/>
      <point x="829" y="14" type="line"/>
      <point x="846" y="14" type="line"/>
      <point x="690" y="470" type="line"/>
      <point x="675" y="470" type="line"/>
      <point x="519" y="29" type="line"/>
      <point x="514" y="15" type="line"/>
      <point x="532" y="15" type="line"/>
      <point x="385" y="470" type="line"/>
      <point x="352" y="470" type="line"/>
    </contour>
    <contour>
      <point x="289" y="450" type="line"/>
      <point x="370" y="444" type="line"/>
      <point x="379" y="444" type="line"/>
      <point x="483" y="450" type="line"/>
      <point x="483" y="470" type="line"/>
      <point x="289" y="470" type="line"/>
    </contour>
    <contour>
      <point x="591" y="450" type="line"/>
      <point x="676" y="444" type="line"/>
      <point x="685" y="444" type="line"/>
      <point x="774" y="450" type="line"/>
      <point x="774" y="470" type="line"/>
      <point x="591" y="470" type="line"/>
    </contour>
    <contour>
      <point x="870" y="450" type="line"/>
      <point x="974" y="444" type="line"/>
      <point x="983" y="444" type="line"/>
      <point x="1053" y="450" type="line"/>
      <point x="1053" y="470" type="line"/>
      <point x="870" y="470" type="line"/>
    </contour>
  </outline>
</glyph>
<glyph name="uni001E" format="2">
  <advance width="720"/>
  <unicode hex="001E"/>
  <outline>
    <contour>
      <point x="10" y="0" type="line"/>
      <point x="181" y="0" type="line"/>
      <point x="181" y="20" type="line"/>
      <point x="99" y="26" type="line"/>
      <point x="90" y="26" type="line"/>
      <point x="10" y="20" type="line"/>
    </contour>
    <contour>
      <point x="61" y="0" type="line"/>
      <point x="90" y="0" type="line"/>
      <point x="172" y="115" type="line"/>
      <point x="255" y="229" type="line"/>
      <point x="256" y="229" type="line"/>
      <point x="245" y="245" type="line"/>
    </contour>
    <contour>
      <point x="305" y="0" type="line"/>
      <point x="490" y="0" type="line"/>
      <point x="490" y="20" type="line"/>
      <point x="410" y="26" type="line"/>
      <point x="402" y="26" type="line"/>
      <point x="305" y="20" type="line"/>
    </contour>
    <contour>
      <point x="257" y="230" type="line"/>
      <point x="434" y="470" type="line"/>
      <point x="407" y="470" type="line"/>
      <point x="327" y="358" type="line"/>
      <point x="247" y="245" type="line"/>
      <point x="246" y="245" type="line"/>
    </contour>
    <contour>
      <point x="664" y="100" type="line"/>
      <point x="684" y="100" type="line"/>
      <point x="690" y="288" type="line"/>
      <point x="658" y="288" type="line"/>
    </contour>
    <contour>
      <point x="405" y="0" type="line"/>
      <point x="441" y="0" type="line"/>
      <point x="260" y="247" type="line"/>
      <point x="101" y="470" type="line"/>
      <point x="68" y="470" type="line"/>
      <point x="244" y="228" type="line"/>
    </contour>
    <contour>
      <point x="17" y="450" type="line"/>
      <point x="99" y="444" type="line"/>
      <point x="108" y="444" type="line"/>
      <point x="199" y="450" type="line"/>
      <point x="199" y="470" type="line"/>
      <point x="17" y="470" type="line"/>
    </contour>
    <contour>
      <point x="309" y="450" type="line"/>
      <point x="399" y="444" type="line"/>
      <point x="407" y="444" type="line"/>
      <point x="483" y="450" type="line"/>
      <point x="483" y="470" type="line"/>
      <point x="309" y="470" type="line"/>
    </contour>
  </outline>
</glyph>
<glyph name="uni001E" format="2">
  <advance width="1410"/>
  <unicode hex="001E"/>
  <outline>
    <contour>
      <point x="486" y="-255" type="curve" smooth="yes"/>
      <point x="555" y="-255"/>
      <point x="622" y="-196"/>
      <point x="667" y="-75" type="curve" smooth="yes"/>
      <point x="869" y="470" type="line"/>
      <point x="843" y="470" type="line"/>
      <point x="761" y="241" type="line"/>
      <point x="678" y="13" type="line"/>
      <point x="677" y="9" type="line"/>
      <point x="646" y="-73" type="line" smooth="yes"/>
      <point x="609" y="-173"/>
      <point x="548" y="-236"/>
      <point x="486" y="-236" type="curve"/>
      <point x="503" y="-248" type="line"/>
      <point x="523" y="-244" type="line"/>
      <point x="500" y="-227" type="line" smooth="yes"/>
      <point x="482" y="-214"/>
      <point x="464" y="-205"/>
      <point x="448" y="-205" type="curve" smooth="yes"/>
      <point x="432" y="-205"/>
      <point x="419" y="-212"/>
      <point x="416" y="-225" type="curve"/>
      <point x="424" y="-247"/>
      <point x="456" y="-255"/>
    </contour>
    <contour>
      <point x="677" y="-26" type="line"/>
      <point x="691" y="6" type="line"/>
      <point x="687" y="17" type="line"/>
      <point x="518" y="470" type="line"/>
      <point x="485" y="470" type="line"/>
    </contour>
    <contour>
      <point x="558" y="587" type="curve" smooth="yes"/>
      <point x="573" y="587"/>
      <point x="587" y="598"/>
      <point x="587" y="617" type="curve" smooth="yes"/>
      <point x="587" y="635"/>
      <point x="573" y="646"/>
      <point x="558" y="646" type="curve" smooth="yes"/>
      <point x="543" y="646"/>
      <point x="529" y="635"/>
      <point x="529" y="617" type="curve" smooth="yes"/>
      <point x="529" y="598"/>
      <point x="543" y="587"/>
    </contour>
    <contour>
      <point x="746" y="587" type="curve" smooth="yes"/>
      <point x="761" y="587"/>
      <point x="775" y="598"/>
      <point x="775" y="617" type="curve" smooth="yes"/>
      <point x="775" y="635"/>
      <point x="761" y="646"/>
      <point x="746" y="646" type="curve" smooth="yes"/>
      <point x="731" y="646"/>
      <point x="717" y="635"/>
      <point x="717" y="617" type="curve" smooth="yes"/>
      <point x="717" y="598"/>
      <point x="731" y="587"/>
    </contour>
    <contour>
      <point x="421" y="450" type="line"/>
      <point x="510" y="444" type="line"/>
      <point x="519" y="444" type="line"/>
      <point x="615" y="450" type="line"/>
      <point x="615" y="470" type="line"/>
      <point x="421" y="470" type="line"/>
    </contour>
    <contour>
      <point x="745" y="450" type="line"/>
      <point x="841" y="444" type="line"/>
      <point x="850" y="444" type="line"/>
      <point x="928" y="450" type="line"/>
      <point x="928" y="470" type="line"/>
      <point x="745" y="470" type="line"/>
    </contour>
  </outline>
</glyph>
<glyph name="uni001E" format="2">
  <advance width="695"/>
  <unicode hex="001E"/>
  <outline>
    <contour>
      <point x="633" y="154" type="curve" smooth="yes"/>
      <point x="649" y="154"/>
      <point x="665" y="167"/>
      <point x="665" y="186" type="curve" smooth="yes"/>
      <point x="665" y="205"/>
      <point x="649" y="218"/>
      <point x="633" y="218" type="curve" smooth="yes"/>
      <point x="617" y="218"/>
      <point x="601" y="205"/>
      <point x="601" y="186" type="curve" smooth="yes"/>
      <point x="601" y="167"/>
      <point x="617" y="154"/>
    </contour>
    <contour>
      <point x="54" y="0" type="line"/>
      <point x="411" y="0" type="line"/>
      <point x="418" y="139" type="line"/>
      <point x="397" y="139" type="line"/>
      <point x="374" y="8" type="line"/>
      <point x="390" y="20" type="line"/>
      <point x="230" y="20" type="line"/>
      <point x="80" y="20" type="line"/>
      <point x="80" y="39" type="line"/>
      <point x="76" y="5" type="line"/>
      <point x="401" y="450" type="line"/>
      <point x="401" y="470" type="line"/>
      <point x="59" y="470" type="line"/>
      <point x="53" y="345" type="line"/>
      <point x="74" y="341" type="line"/>
      <point x="94" y="462" type="line"/>
      <point x="77" y="450" type="line"/>
      <point x="230" y="450" type="line"/>
      <point x="372" y="450" type="line"/>
      <point x="378" y="444" type="line"/>
      <point x="378" y="465" type="line"/>
      <point x="54" y="20" type="line"/>
    </contour>
  </outline>
</glyph>
